PathFileType	4	(X/Y/Z)	C:\Users\WrightLab\Desktop\Jo\P4V132.trc
DataRate	CameraRate	NumFrames	NumMarkers	Units	OrigDataRate	OrigDataStartFrame	OrigNumFrames
100.00	100.00	       16	19	mm	100.00	257	       512
Frame#	Time	Headset_Front			Headset_Back			Headset_Left			Headset_Right			Left_Shoulder			Right_Shoulder			Sternum			C7			Left Elbow			Right Elbow			Left Wrist			Right Wrist			Left ASIS			Right ASIS			S2			Left Knee			Right Knee			Left Ankle			Right Ankle			
		X1	Y1	Z1	X2	Y2	Z2	X3	Y3	Z3	X4	Y4	Z4	X5	Y5	Z5	X6	Y6	Z6	X7	Y7	Z7	X8	Y8	Z8	X9	Y9	Z9	X10	Y10	Z10	X11	Y11	Z11	X12	Y12	Z12	X13	Y13	Z13	X14	Y14	Z14	X15	Y15	Z15	X16	Y16	Z16	X17	Y17	Z17	X18	Y18	Z18	X19	Y19	Z19	

257	2.560	-442.23383	1600.24731	5.20195				-570.35309	1692.24585	144.98076				-586.05981	1515.90198	295.12115	-312.85544	1534.95349	204.54385	-488.90970	1458.38550	148.45464	-427.21976	1560.22363	296.19943	-765.05316	1183.45789	299.97467	-86.47604	1438.77173	-35.95765	-863.07593	979.02014	79.97764	-76.55265	1437.43567	-340.00290	-596.21295	1022.01953	251.47636	-316.88007	1013.65521	70.14740	-373.12100	1052.38232	324.20453	-536.58606	549.56842	367.86578	-372.84024	553.39966	2.45240	-389.39575	77.09544	513.01007	-483.70761	52.42572	-21.41071	
258	2.570	-444.29065	1597.90710	-4.00004				-572.99927	1690.55359	134.58888				-589.46033	1513.64771	284.02936	-316.05984	1532.74731	196.51303	-491.71948	1456.46948	138.11426	-430.14569	1557.86218	286.37576	-769.28833	1182.23157	286.32159	-87.92377	1437.03455	-43.92258	-866.15967	979.07129	65.30164	-77.49633	1435.78931	-348.52014	-600.75336	1020.27576	240.79033	-320.58777	1011.26056	60.36075	-378.27933	1050.79785	315.41501	-539.79858	548.45251	361.09457	-377.12955	548.02899	-1.76191	-388.96707	78.60615	511.86380	-493.86026	51.87263	-42.20988	
259	2.580	-446.19406	1595.96167	-14.16679				-576.27740	1688.50964	123.60200				-593.35022	1511.88635	273.57764	-318.93698	1530.70837	187.20506	-494.82098	1454.98523	128.37497	-434.31354	1556.27063	277.00626	-772.74652	1180.35083	273.37924	-90.13973	1434.73352	-51.08322	-869.03394	979.42267	50.68532	-78.02891	1434.41687	-356.04251	-605.36432	1018.80475	229.71985	-324.56305	1008.26727	50.75955	-383.15839	1048.11499	304.25476	-545.57849	548.38824	354.19199	-381.25369	543.91577	-6.67696	-389.62402	80.33527	510.95316	-500.79254	51.77494	-60.87331	
260	2.590	-448.09702	1593.61279	-24.05348				-578.53467	1687.07507	112.43029				-596.43823	1509.89453	262.66666	-321.71689	1528.69409	178.09218	-497.05585	1453.28015	117.61335	-437.39767	1554.30615	267.06641	-776.94971	1179.55725	261.21576	-90.90987	1433.09155	-58.90762	-871.79962	979.22150	36.20080	-78.28210	1432.94312	-363.45200	-610.00824	1017.31714	219.25427	-328.53378	1006.49304	40.89216	-387.75748	1047.94958	295.30975	-548.65942	547.69562	346.61969	-385.92551	540.17865	-13.37044	-391.81348	82.95067	509.47922	-508.36444	51.32664	-76.70142	
261	2.600	-449.82788	1591.37708	-33.83393				-580.97595	1685.49927	102.04145				-599.77722	1508.48975	251.93065	-324.18805	1526.66028	168.75505	-499.76013	1451.63062	108.08092	-441.18079	1552.76074	257.30945	-780.79785	1177.93921	249.11218	-93.05922	1430.63733	-67.03239	-873.72418	978.51672	22.85615	-79.04782	1431.25085	-371.55975	-614.29102	1016.16364	207.99619	-332.31525	1003.44092	32.38731	-392.29318	1045.87878	283.99957	-553.79675	547.96002	338.47794	-390.47507	538.41461	-21.64195	-391.93723	84.47331	508.78503	-515.43524	49.85210	-88.77919	
262	2.610	-451.56149	1589.59241	-44.08990				-582.95911	1684.11719	91.08996				-602.69769	1507.30957	240.90675	-327.05914	1525.09497	158.54033	-501.81189	1450.38330	97.19329	-443.89575	1550.95435	246.94400	-783.89838	1177.15674	236.76959	-94.61292	1428.55811	-75.46190	-875.24432	978.53204	8.12422	-79.81126	1429.50415	-379.99228	-618.64484	1014.70605	196.89494	-336.12991	1001.81970	21.90889	-396.65268	1044.06909	274.15115	-559.08081	547.76770	329.99875	-395.69446	536.64880	-31.45253	-392.88385	87.84042	507.72070	-520.23828	47.35504	-97.33643	
263	2.620	-453.08582	1588.18164	-54.61768				-584.59515	1682.26501	80.54050				-605.96527	1505.66162	229.90834	-329.52158	1523.27417	149.56161	-504.66965	1448.79089	86.74501	-446.82565	1549.27368	236.61482	-786.12476	1175.35583	224.51859	-95.77612	1426.59094	-83.95157	-877.03955	977.64105	-4.75571	-79.48731	1428.08362	-387.79742	-623.16840	1013.76056	185.65930	-339.33987	999.82135	12.32721	-401.06656	1041.78979	263.32056	-564.16669	547.19867	320.94669	-401.06073	535.57904	-42.23108	-395.15268	90.78743	506.32178	-523.20166	44.65451	-103.74790	
264	2.630	-454.62744	1587.09216	-65.24962				-586.47772	1681.14661	69.50632				-608.57782	1504.54272	218.49121	-332.10782	1521.76636	138.83119	-506.42776	1447.77686	76.03280	-449.39557	1548.12683	226.04739	-789.83685	1174.55493	213.11076	-97.12048	1425.12793	-92.30556	-877.78595	975.83661	-17.23219	-80.08668	1426.69763	-396.63031	-627.21344	1012.62579	173.81560	-342.97800	997.48907	2.63176	-405.58044	1040.18286	252.75288	-570.40521	547.58209	311.67044	-404.80502	535.79974	-54.56267	-396.59174	93.88235	505.77921	-524.65790	42.22000	-106.92015	
265	2.640	-456.06348	1585.86853	-75.59335				-588.04938	1679.87317	59.24633				-611.49506	1503.18884	207.05264	-334.22192	1519.87109	130.34836	-508.75281	1447.02368	64.18875	-452.04840	1546.56128	215.47307	-792.32721	1173.60583	200.54265	-98.35973	1423.18665	-100.29974	-878.42834	974.85699	-28.88879	-80.63475	1424.88611	-404.26080	-631.70056	1011.34381	161.74969	-345.47968	996.59973	-8.67798	-410.62057	1038.49829	241.82460	-576.16968	547.44177	302.17862	-407.66223	535.65875	-69.22942	-398.29538	97.96273	504.56613	-526.90521	42.77596	-107.74805	
266	2.650	-457.41949	1584.89539	-86.00275				-590.02069	1679.20105	47.71331				-614.41327	1502.13062	195.49028	-336.19528	1518.15869	120.70398	-510.36826	1445.93250	53.18034	-455.03705	1545.42517	205.03018	-794.90002	1172.14233	188.72331	-99.83241	1421.18469	-108.80828	-878.57281	972.60394	-41.63384	-81.32294	1423.20093	-414.25491	-635.81415	1010.43427	148.99022	-349.24326	995.14856	-18.41809	-415.29373	1037.07336	230.36369	-582.96460	547.63483	291.55191	-410.86301	536.40912	-81.35726	-400.56918	102.13486	503.21472	-529.58423	43.72525	-108.62976	
267	2.660	-458.65097	1584.61328	-97.07780				-591.87567	1678.50891	36.72264				-616.80469	1501.11316	183.49052	-338.24890	1515.86462	111.04761	-512.36835	1445.28650	41.48844	-456.71814	1543.77197	194.21729	-797.33038	1170.76941	177.72807	-101.00784	1419.21851	-117.69929	-878.89130	971.30597	-52.82153	-80.38212	1421.41760	-421.54929	-639.86615	1009.36346	135.94244	-352.28757	995.58575	-31.12424	-420.14041	1036.52979	219.67569	-590.80750	547.95618	280.71985	-412.35095	535.52368	-94.32463	-402.96579	106.93462	501.18716	-531.28680	45.87603	-111.55150	
268	2.670	-460.00388	1583.82031	-107.67079				-593.38049	1677.91345	25.86666				-619.18768	1500.61426	171.64980	-339.53098	1516.98816	103.31380	-514.22900	1444.51160	30.42146	-459.08859	1543.19788	183.54059	-799.57990	1170.27490	166.06631	-101.95773	1417.18982	-126.87255	-879.00671	968.99902	-62.22618	-80.42584	1420.17590	-430.96902	-643.75574	1008.84015	122.55697	-355.72357	995.21552	-42.39629	-424.26532	1035.85657	208.07686	-598.20313	547.63544	268.51541	-413.40869	534.55914	-107.23691	-405.33679	112.93597	498.23801	-533.77197	47.20061	-114.28495	
269	2.680	-461.02631	1584.01746	-118.24050				-595.60339	1678.26831	13.79977				-621.81396	1500.39661	160.37700	-341.28506	1516.16150	92.90820	-515.76801	1444.35889	19.78153	-464.99084	1543.75842	175.99448	-800.43243	1168.27112	155.96919	-102.49042	1415.44824	-136.05403	-878.48462	966.76093	-73.10612	-80.91203	1418.51843	-439.78735	-647.70050	1008.19824	109.34822	-358.60715	995.92792	-53.59713	-428.84601	1034.64880	195.43996	-606.05273	546.62653	254.89119	-414.11777	534.01111	-119.30741	-409.67114	118.32912	494.89514	-535.31781	48.21440	-118.65530	
270	2.690	-462.31390	1584.41907	-129.46327				-596.57306	1677.40808	3.45817				-623.58905	1500.34131	148.78154	-342.93951	1515.58521	81.77539	-518.03589	1444.61536	8.17216	-466.07224	1543.89722	164.71088	-802.19214	1168.23975	144.67018	-104.74252	1411.26672	-146.36760	-877.99603	964.41309	-83.17493	-81.57156	1417.15479	-448.62979	-651.73199	1007.97729	96.48158	-361.40195	996.90302	-65.51353	-434.19955	1034.95227	184.78139	-614.17029	544.62994	238.75278	-414.54654	533.11591	-128.90019	-414.61542	125.70132	489.81906	-536.17438	49.02385	-120.36166	
271	2.700	-463.57925	1585.00720	-139.85640										-625.38153	1500.27100	137.09578	-344.65063	1515.75745	70.90356	-519.18762	1445.21814	-2.16629	-467.66782	1544.39771	153.43274	-803.97632	1168.05273	133.21385	-104.41293	1410.70361	-155.36395	-877.19495	961.89624	-93.03982	-81.62337	1415.47754	-457.99838	-655.40259	1008.55414	82.95437	-363.47287	998.13702	-75.90836	-437.13544	1035.83118	173.57010	-621.82611	542.92352	221.33215	-416.90781	533.38708	-138.80794	-417.14655	134.68861	483.80176	-534.90118	49.54141	-123.38990	
272	2.710	-464.86044	1586.46655	-151.06804										-627.22070	1500.81030	127.35992	-346.53476	1515.59290	60.26466	-521.27991	1446.22864	-14.06843	-469.92120	1544.61389	142.65642	-803.90070	1167.54126	123.53975	-105.55295	1409.11658	-164.21271	-876.40100	959.27289	-101.94582	-82.02902	1414.19543	-466.50656	-658.74268	1008.65936	69.91525	-365.99466	1000.45215	-87.35361	-442.16306	1035.13049	160.07758	-630.52502	541.29449	203.75406	-420.87787	534.24823	-146.99382	-421.52643	144.65916	477.07764	-535.03619	50.40281	-123.75224	
